<?xml version="1.0" encoding="UTF-8"?>
<svg xmlns="http://www.w3.org/2000/svg" xmlns:xlink="http://www.w3.org/1999/xlink" width="10.364pt" height="57.091pt" viewBox="0 0 10.364 57.091" version="1.1">
<defs>
<clipPath id="clip1">
  <path d="M 3 0 L 4 0 L 4 57.089844 L 3 57.089844 Z M 3 0 "/>
</clipPath>
<clipPath id="clip2">
  <path d="M 0 14 L 10.363281 14 L 10.363281 43 L 0 43 Z M 0 14 "/>
</clipPath>
</defs>
<g id="surface1">
<g clip-path="url(#clip1)" clip-rule="nonzero">
<path style="fill:none;stroke-width:0.3985;stroke-linecap:butt;stroke-linejoin:miter;stroke:rgb(0%,0%,0%);stroke-opacity:1;stroke-miterlimit:10;" d="M -0.00090625 56.692781 L -0.00090625 41.102938 M -0.00090625 15.591219 L -0.00090625 0.001375 " transform="matrix(1,0,0,-1,3.747,56.892)"/>
</g>
<g clip-path="url(#clip2)" clip-rule="nonzero">
<path style="fill:none;stroke-width:0.797;stroke-linecap:butt;stroke-linejoin:bevel;stroke:rgb(0%,0%,0%);stroke-opacity:1;stroke-miterlimit:10;" d="M -0.161063 41.501375 C 3.362375 41.501375 6.217844 39.751375 6.217844 37.595125 C 6.217844 35.438875 3.362375 33.688875 -0.161063 33.688875 C -1.918875 33.688875 -3.348563 34.403719 -3.348563 35.282625 C -3.348563 36.165438 -1.918875 36.876375 -0.161063 36.876375 C 3.362375 36.876375 6.217844 35.130281 6.217844 32.970125 C 6.217844 30.813875 3.362375 29.063875 -0.161063 29.063875 C -1.918875 29.063875 -3.348563 29.778719 -3.348563 30.657625 C -3.348563 31.540438 -1.918875 32.251375 -0.161063 32.251375 C 3.362375 32.251375 6.217844 30.505281 6.217844 28.345125 C 6.217844 26.188875 3.362375 24.438875 -0.161063 24.438875 C -1.918875 24.438875 -3.348563 25.153719 -3.348563 26.036531 C -3.348563 26.915438 -1.918875 27.630281 -0.161063 27.630281 C 3.362375 27.630281 6.217844 25.880281 6.217844 23.724031 C 6.217844 21.563875 3.362375 19.817781 -0.161063 19.817781 C -1.918875 19.817781 -3.348563 20.528719 -3.348563 21.411531 C -3.348563 22.290438 -1.918875 23.005281 -0.161063 23.005281 C 3.362375 23.005281 6.217844 21.255281 6.217844 19.099031 C 6.217844 16.942781 3.362375 15.192781 -0.161063 15.192781 " transform="matrix(1,0,0,-1,3.747,56.892)"/>
</g>
</g>
</svg>
